<?xml version="1.0" encoding="UTF-8" standalone="no"?>
<!DOCTYPE svg PUBLIC "-//W3C//DTD SVG 1.1//EN" "http://www.w3.org/Graphics/SVG/1.1/DTD/svg11.dtd">
<svg fill="currentColor" viewBox="0 0 32 32" version="1.1" xmlns="http://www.w3.org/2000/svg" xmlns:xlink="http://www.w3.org/1999/xlink" xml:space="preserve" xmlns:serif="http://www.serif.com/" style="fill-rule:evenodd;clip-rule:evenodd;stroke-linejoin:round;stroke-miterlimit:2;">
    <g>
        <clipPath id="_clip1">
            <rect x="4" y="4" width="24" height="24"/>
        </clipPath>
        <g clip-path="url(#_clip1)">
            <g transform="matrix(2.28571,0,0,2.42857,-28.5714,-40)">
                <path d="M23,21.412L23,26.765C23,27.447 22.412,28 21.688,28L17.312,28C16.588,28 16,27.447 16,26.765L16,21.412L23,21.412ZM22.125,22.647C22.125,22.42 21.929,22.235 21.688,22.235C21.446,22.235 21.25,22.42 21.25,22.647L21.25,26.765C21.25,26.992 21.446,27.176 21.688,27.176C21.929,27.176 22.125,26.992 22.125,26.765L22.125,22.647ZM19.938,22.647C19.938,22.42 19.741,22.235 19.5,22.235C19.259,22.235 19.063,22.42 19.063,22.647L19.063,26.765C19.063,26.992 19.259,27.176 19.5,27.176C19.741,27.176 19.938,26.992 19.938,26.765L19.938,22.647ZM17.75,22.647C17.75,22.42 17.554,22.235 17.313,22.235C17.071,22.235 16.875,22.42 16.875,22.647L16.875,26.765C16.875,26.992 17.071,27.176 17.313,27.176C17.554,27.176 17.75,26.992 17.75,26.765L17.75,22.647Z"/>
            </g>
            <g transform="matrix(2.57143,0,0,0.428571,-34.1429,-2)">
                <path d="M21.444,21C22.304,21 23,25.179 23,30.333L16,30.333C16,25.179 16.696,21 17.556,21L17.556,20.995C17.556,19.14 17.678,17.361 17.897,16.049C18.116,14.737 18.412,14 18.721,14L20.278,14C20.922,14 21.444,17.134 21.444,21ZM18.333,21L20.667,21C20.667,20.381 20.626,19.788 20.553,19.35C20.48,18.912 20.381,18.667 20.278,18.667L18.722,18.667C18.507,18.667 18.333,19.712 18.333,21Z"/>
            </g>
        </g>
    </g>
</svg>
