<svg viewBox="0 0 128 128" fill="currentColor" xmlns="http://www.w3.org/2000/svg">
<path fill-rule="evenodd" clip-rule="evenodd" d="M92.1414 16C96.4815 16 100 19.5746 100 23.9838C100 40.8497 100 80.4817 100 104.016C100 107.201 98.1365 110.082 95.2586 111.345C92.3797 112.609 89.038 112.013 86.7552 109.83C76.4888 100.013 64 88.0719 64 88.0719C64 88.0719 51.5112 100.013 41.2448 109.83C38.962 112.013 35.6204 112.609 32.7414 111.345C29.8635 110.082 28 107.201 28 104.016C28 80.4817 28 40.8497 28 23.9838C28 19.5746 31.5185 16 35.8586 16C49.7059 16 78.2941 16 92.1414 16Z"/>
</svg>
