<svg xmlns="http://www.w3.org/2000/svg" fill="currentColor" viewBox="0 0 32 32">
  <g clip-path="url(#a)">
    <path fill-rule="evenodd" d="M13 26a7 7 0 1 0 0-14 7 7 0 0 0 0 14Zm0 2a9 9 0 1 0 0-18 9 9 0 0 0 0 18Z" clip-rule="evenodd"/>
    <path d="M11.417 18.547a1.556 1.556 0 1 1-3.112 0 1.556 1.556 0 0 1 3.112 0Zm6.222 0a1.556 1.556 0 1 1-3.111 0 1.556 1.556 0 0 1 3.11 0Z"/>
    <path fill-rule="evenodd" d="M16.146 23.489a.889.889 0 0 1-1.247.156l-.034-.026c-.39-.304-.866-.676-1.865-.676-.998 0-1.475.372-1.865.676l-.034.026a.889.889 0 0 1-1.091-1.403l.027-.022c.484-.377 1.355-1.054 2.963-1.054s2.479.677 2.963 1.054l.027.022c.388.301.458.86.156 1.247Z" clip-rule="evenodd"/>
    <path d="M28 11.5a3.5 3.5 0 1 1-7 0 3.5 3.5 0 0 1 7 0Zm-8-4a.5.5 0 1 1-1 0 .5.5 0 0 1 1 0Zm-1-1a.5.5 0 1 1-1 0 .5.5 0 0 1 1 0Zm-1 2a.5.5 0 1 1-1 0 .5.5 0 0 1 1 0Z"/>
    <path d="M24.5 6.7c.663 0 1.2.672 1.2 1.5s-.537 1.5-1.2 1.5c-.663 0-1.2-.672-1.2-1.5s.537-1.5 1.2-1.5Z"/>
    <path fill-rule="evenodd" d="M24.34 5.552c.336.324.543.782.651 1.355.115.604.04 1.088-.124 1.478-.106.25-.244.449-.365.6l.116.03-.236.971a4.28 4.28 0 0 1-.579-.173c-.125-.051-.333-.148-.452-.352a.645.645 0 0 1 .015-.658c.06-.104.149-.204.207-.27l.011-.013c.14-.158.272-.311.361-.524.086-.202.143-.486.064-.903-.085-.449-.225-.689-.363-.822-.132-.127-.312-.204-.582-.226-.28-.023-.626.017-1.05.103-.323.066-.665.153-1.036.247l-.357.09a.5.5 0 0 1-.242-.97l.336-.085c.377-.096.75-.19 1.1-.262.452-.092.909-.154 1.33-.12.432.035.854.174 1.195.504Zm-.212 3.31.006.003a.032.032 0 0 1-.006-.003Z" clip-rule="evenodd"/>
  </g>
  <defs>
    <clipPath id="a">
      <path d="M4 4h24v24H4z"/>
    </clipPath>
  </defs>
</svg>
