<svg xmlns="http://www.w3.org/2000/svg" fill="currentColor" viewBox="0 0 128 128">
  <g clip-path="url(#a)">
    <path fill-rule="evenodd" d="M49.698 17.698c-17.673 0-32 14.327-32 32v29.456c0 17.673 14.327 32 32 32h29.456c17.673 0 32-14.327 32-32V49.698c0-17.673-14.327-32-32-32H49.698Zm41.963 23.469c1.636-2.963-1.622-6.221-4.586-4.586l-18.64 10.29a3.375 3.375 0 0 0-.755 5.34l8.35 8.352a3.375 3.375 0 0 0 5.342-.756l10.29-18.64ZM59.657 65.314a1.688 1.688 0 0 1 0-2.386l3.27-3.27a1.688 1.688 0 0 1 2.387 0l3.27 3.27c.66.659.66 1.727 0 2.386l-3.27 3.27a1.688 1.688 0 0 1-2.386 0l-3.27-3.27ZM36.581 87.075c-1.636 2.964 1.623 6.222 4.586 4.586l18.64-10.29a3.375 3.375 0 0 0 .756-5.34l-8.352-8.352a3.375 3.375 0 0 0-5.34.756l-10.29 18.64Z" clip-rule="evenodd"/>
  </g>
  <defs>
    <clipPath id="a">
      <path d="M16 16h96v96H16z"/>
    </clipPath>
  </defs>
</svg>
