<svg xmlns="http://www.w3.org/2000/svg" fill="currentColor" viewBox="0 0 32 32">
  <g clip-path="url(#a)">
    <path fill-rule="evenodd" d="M12.425 4.425a8 8 0 0 0-8 8v7.363a8 8 0 0 0 8 8h7.363a8 8 0 0 0 8-8v-7.363a8 8 0 0 0-8-8h-7.364Zm10.49 5.867c.41-.741-.405-1.556-1.146-1.147l-4.66 2.573a.844.844 0 0 0-.19 1.335l2.089 2.088a.844.844 0 0 0 1.335-.19l2.572-4.66Zm-8 6.037a.422.422 0 0 1 0-.597l.817-.818a.422.422 0 0 1 .596 0l.818.818a.422.422 0 0 1 0 .597l-.818.817a.422.422 0 0 1-.596 0l-.818-.817Zm-5.77 5.44c-.409.74.406 1.555 1.147 1.146l4.66-2.572a.844.844 0 0 0 .189-1.335l-2.088-2.088a.844.844 0 0 0-1.336.189l-2.572 4.66Z" clip-rule="evenodd"/>
  </g>
  <defs>
    <clipPath id="a">
      <path d="M4 4h24v24H4z"/>
    </clipPath>
  </defs>
</svg>
