<svg xmlns="http://www.w3.org/2000/svg" fill="currentColor" viewBox="0 0 32 32">
  <g clip-path="url(#a)">
    <path fill-rule="evenodd" d="M16.5 20.889a7.389 7.389 0 1 0 0-14.778 7.389 7.389 0 0 0 0 14.778Zm0 2.111a9.5 9.5 0 1 0 0-19 9.5 9.5 0 0 0 0 19Z" clip-rule="evenodd"/>
    <path d="M14.829 13.022a1.642 1.642 0 1 1-3.284 0 1.642 1.642 0 0 1 3.284 0Zm6.568 0a1.642 1.642 0 1 1-3.284 0 1.642 1.642 0 0 1 3.284 0Z"/>
    <path fill-rule="evenodd" d="M13.18 16.148a.938.938 0 0 1 1.351-.137c.412.321.915.713 1.969.713s1.557-.392 1.969-.713c.011-.01.023-.018.035-.027a.938.938 0 1 1 1.123 1.503c-.51.398-1.43 1.114-3.127 1.114-1.698 0-2.616-.716-3.127-1.114l-.03-.022a.938.938 0 0 1-.164-1.317Z" clip-rule="evenodd"/>
    <path d="M9.224 28.276a7.276 7.276 0 0 1 14.552 0H9.224Z"/>
  </g>
  <defs>
    <clipPath id="a">
      <path d="M4 4h24v24H4z"/>
    </clipPath>
  </defs>
</svg>
