<svg viewBox="0 0 128 128" fill="currentColor" xmlns="http://www.w3.org/2000/svg">
<g clip-path="url(#clip0_135_36)">
<path fill-rule="evenodd" clip-rule="evenodd" d="M35.2278 87.9024H24.0002C21.4714 87.9024 19.0909 86.7072 17.5817 84.6778C16.0718 82.6493 15.6106 80.0255 16.3372 77.6038L17.0496 75.2299C18.0649 71.8454 21.179 69.5284 24.7125 69.5284H39.6624L42.7666 56.6666H31.3495C28.8207 56.6666 26.441 55.4714 24.9311 53.442C23.4219 51.4135 22.96 48.7897 23.6873 46.368L24.3989 43.9941C25.4143 40.6096 28.5291 38.2927 32.0619 38.2927H47.2012L50.38 25.1231C51.247 21.531 54.4612 19 58.1565 19H58.7262C61.1784 19 63.495 20.1245 65.012 22.051C66.529 23.9775 67.0782 26.4929 66.5027 28.8769L64.2308 38.2927H78.4208L81.5995 25.1231C82.4666 21.531 85.6807 19 89.376 19H89.9458C92.3979 19 94.7145 20.1245 96.2315 22.051C97.7485 23.9775 98.2977 26.4929 97.7223 28.8769L95.4503 38.2927H103.553C106.081 38.2927 108.461 39.4879 109.971 41.5173C111.48 43.5458 111.941 46.1696 111.215 48.5913L110.503 50.9652C109.488 54.3497 106.373 56.6666 102.84 56.6666H91.0157L87.9115 69.5284H96.2032C98.7319 69.5284 101.112 70.7236 102.621 72.7531C104.131 74.7815 104.592 77.4053 103.865 79.827L103.153 82.201C102.138 85.5854 99.0236 87.9024 95.4908 87.9024H83.4769L80.2982 101.072C79.4312 104.664 76.217 107.195 72.5217 107.195H71.952C69.4998 107.195 67.1832 106.071 65.6662 104.144C64.1492 102.218 63.6 99.7022 64.1755 97.3181L66.4474 87.9024H52.2574L49.0787 101.072C48.2116 104.664 44.9974 107.195 41.3022 107.195H40.7324C38.2803 107.195 35.9636 106.071 34.4466 104.144C32.9297 102.218 32.3805 99.7022 32.9559 97.3181L35.2278 87.9024ZM59.7962 56.6666L56.692 69.5284H70.882L73.9862 56.6666H59.7962Z"/>
</g>
<defs>
<clipPath id="clip0_135_36">
<rect width="96" height="89" fill="white" transform="translate(16 19)"/>
</clipPath>
</defs>
</svg>
