<svg xmlns="http://www.w3.org/2000/svg" fill="currentColor" viewBox="0 0 32 32">
  <g clip-path="url(#a)">
    <path fill-rule="evenodd" d="M8.807 21.976H6A2 2 0 0 1 4.084 19.4l.178-.594a2 2 0 0 1 1.916-1.425h3.737l.777-3.215H7.836a2 2 0 0 1-1.915-2.575l.178-.594a2 2 0 0 1 1.915-1.425H11.8l.795-3.292a2 2 0 0 1 1.944-1.531h.142a2 2 0 0 1 1.944 2.47l-.567 2.353h3.547L20.4 6.28a2 2 0 0 1 1.944-1.531h.142a2 2 0 0 1 1.944 2.47l-.568 2.353h2.026a2 2 0 0 1 1.915 2.575l-.177.593a2 2 0 0 1-1.916 1.426h-2.956l-.776 3.215h2.073a2 2 0 0 1 1.915 2.575l-.178.593a2 2 0 0 1-1.916 1.426H20.87l-.795 3.292a2 2 0 0 1-1.944 1.53h-.142a2 2 0 0 1-1.944-2.468l.568-2.354h-3.548l-.794 3.292a2 2 0 0 1-1.945 1.53h-.142a2 2 0 0 1-1.944-2.468l.568-2.354Zm6.142-7.81-.776 3.216h3.547l.776-3.215H14.95Z" clip-rule="evenodd"/>
  </g>
  <defs>
    <clipPath id="a">
      <path d="M4 4.75h24V27H4z"/>
    </clipPath>
  </defs>
</svg>
