<svg viewBox="0 0 128 128" version="1.1" xmlns="http://www.w3.org/2000/svg" xmlns:xlink="http://www.w3.org/1999/xlink" xml:space="preserve" xmlns:serif="http://www.serif.com/" style="fill-rule:evenodd;clip-rule:evenodd;stroke-linejoin:round;stroke-miterlimit:2;" fill="currentColor">
    <g transform="matrix(1,0,0,1,16,16)">
        <path d="M84,48C84,67.882 67.882,84 48,84C28.118,84 12,67.882 12,48C12,28.118 28.118,12 48,12C67.882,12 84,28.118 84,48ZM56,30C56,34.418 52.418,38 48,38C43.582,38 40,34.418 40,30C40,25.582 43.582,22 48,22C52.418,22 56,25.582 56,30ZM48,42C43.582,42 40,45.582 40,50L40,66C40,70.418 43.582,74 48,74C52.418,74 56,70.418 56,66L56,50C56,45.582 52.418,42 48,42Z"/>
    </g>
</svg>
