<svg xmlns="http://www.w3.org/2000/svg" fill="currentColor" viewBox="0 0 128 128">
  <path fill-rule="evenodd" d="M58.719 106.897C31.554 85.804 20.068 67.619 16.989 54.07c-2.574-11.324.138-20.218 5.13-26.454C27.613 20.754 36.142 17 44.84 17c8.436 0 14.687 3.415 18.99 7.126C68.133 20.415 74.384 17 82.82 17c8.698 0 17.226 3.754 22.721 10.616 4.992 6.236 7.705 15.13 5.131 26.454-3.081 13.55-14.566 31.734-41.73 52.827l-5.111 3.969-5.111-3.969Zm5.11-6.582c59.315-46.058 39.64-74.982 18.99-74.982-13.241 0-18.99 11.716-18.99 11.716s-5.747-11.716-18.99-11.716c-20.65 0-40.324 28.924 18.99 74.982Z" clip-rule="evenodd"/>
</svg>
