<svg xmlns="http://www.w3.org/2000/svg" fill="currentColor" viewBox="0 0 128 128">
  <path d="M59.696 20.708c1.197-3.685 6.41-3.685 7.608 0l8.432 25.95a4 4 0 0 0 3.804 2.764h27.286c3.875 0 5.486 4.959 2.351 7.237L87.102 72.697a4 4 0 0 0-1.453 4.472l8.432 25.95c1.198 3.686-3.02 6.75-6.155 4.472L65.85 91.553a4 4 0 0 0-4.702 0l-22.075 16.038c-3.135 2.278-7.353-.786-6.155-4.472l8.432-25.95a4 4 0 0 0-1.453-4.472L17.823 56.659c-3.135-2.278-1.524-7.236 2.35-7.236H47.46a4 4 0 0 0 3.804-2.764l8.432-25.95Z"/>
</svg>
