<svg xmlns="http://www.w3.org/2000/svg" fill="currentColor" viewBox="0 0 32 32">
  <path fill-rule="evenodd" d="M14.68 26.724c-6.791-5.273-9.663-9.82-10.433-13.207-.643-2.83.035-5.054 1.283-6.613C6.903 5.188 9.035 4.25 11.21 4.25c2.109 0 3.672.854 4.747 1.782 1.076-.928 2.639-1.782 4.748-1.782 2.174 0 4.306.938 5.68 2.654 1.248 1.56 1.926 3.783 1.283 6.614-.77 3.387-3.642 7.933-10.433 13.206l-1.278.992-1.277-.992Zm1.277-1.645c14.829-11.515 9.91-18.746 4.748-18.746-3.31 0-4.748 2.93-4.748 2.93s-1.437-2.93-4.747-2.93c-5.163 0-10.081 7.231 4.747 18.746Z" clip-rule="evenodd"/>
</svg>
