<svg xmlns="http://www.w3.org/2000/svg" fill="currentColor" viewBox="0 0 128 128">
  <g clip-path="url(#a)">
    <path fill-rule="evenodd" d="M42.23 17A9.23 9.23 0 0 0 33 26.23v76.155a9.23 9.23 0 0 0 9.23 9.23h41.54a9.23 9.23 0 0 0 9.23-9.23v-7.247c-7.175 1.296-14.923-3.924-14.923-12.444v-1.88H72.23C62.714 80.813 55 73.098 55 63.581c0-9.516 7.714-17.23 17.23-17.23h5.847v-.727c0-8.52 7.748-13.74 14.923-12.445v-6.95A9.23 9.23 0 0 0 83.77 17H42.23ZM93 41.614c-2.899-1.703-6.923.297-6.923 4.01v8.728H72.23a9.23 9.23 0 0 0 0 18.461h13.846v9.88c0 3.715 4.024 5.715 6.923 4.011v-45.09Z" clip-rule="evenodd"/>
    <path fill-rule="evenodd" d="M110.949 67.263a4.616 4.616 0 0 0 0-6.208l-16.84-18.534c-2.838-3.123-8.032-1.115-8.032 3.104v8.727H72.23a9.23 9.23 0 0 0 0 18.461h13.846v9.88c0 4.22 5.194 6.227 8.031 3.105l16.841-18.535Z" clip-rule="evenodd"/>
  </g>
  <defs>
    <clipPath id="a">
      <path d="M16 16h96v96H16z"/>
    </clipPath>
  </defs>
</svg>
