<svg xmlns="http://www.w3.org/2000/svg" fill="currentColor" viewBox="0 0 32 32">
  <g clip-path="url(#a)">
    <path fill-rule="evenodd" d="M10.558 4.25A2.308 2.308 0 0 0 8.25 6.558v19.038a2.308 2.308 0 0 0 2.308 2.308h10.384a2.308 2.308 0 0 0 2.308-2.308v-1.811c-1.794.323-3.73-.982-3.73-3.111v-.47h-1.462a4.308 4.308 0 1 1 0-8.616h1.461v-.182c0-2.13 1.937-3.435 3.731-3.11V6.557a2.308 2.308 0 0 0-2.308-2.308H10.558Zm12.692 6.154c-.725-.426-1.73.074-1.73 1.002v2.182h-3.463a2.308 2.308 0 0 0 0 4.615h3.462v2.47c0 .929 1.006 1.429 1.731 1.003V10.404Z" clip-rule="evenodd"/>
    <path fill-rule="evenodd" d="M27.737 16.816c.4-.44.4-1.112 0-1.552l-4.21-4.634c-.71-.78-2.008-.279-2.008.776v2.182h-3.461a2.308 2.308 0 0 0 0 4.615h3.461v2.47c0 1.055 1.299 1.557 2.008.776l4.21-4.633Z" clip-rule="evenodd"/>
  </g>
  <defs>
    <clipPath id="a">
      <path d="M4 4h24v24H4z"/>
    </clipPath>
  </defs>
</svg>
