<svg xmlns="http://www.w3.org/2000/svg" fill="currentColor" viewBox="0 0 32 32">
  <path d="M15.878 27.028c-1.813 0-3.426-.247-4.841-.741-1.415-.489-2.61-1.207-3.588-2.156-.977-.944-1.722-2.097-2.233-3.46-.511-1.364-.767-2.915-.767-4.654 0-1.716.256-3.273.767-4.67.517-1.398 1.27-2.597 2.258-3.597.99-1.006 2.196-1.778 3.623-2.318 1.431-.54 3.062-.81 4.892-.81 1.693 0 3.204.247 4.534.742 1.335.494 2.466 1.199 3.392 2.113a8.977 8.977 0 0 1 2.122 3.247c.489 1.25.73 2.634.724 4.151a13.416 13.416 0 0 1-.272 2.88c-.188.876-.483 1.64-.887 2.293a4.48 4.48 0 0 1-1.568 1.543c-.648.375-1.432.588-2.352.64-.66.05-1.193.002-1.602-.146-.41-.148-.722-.366-.938-.656a2.404 2.404 0 0 1-.41-1.031h-.101c-.137.34-.404.65-.802.929-.397.272-.883.485-1.457.639a5.76 5.76 0 0 1-1.815.162 5.357 5.357 0 0 1-1.91-.469 4.846 4.846 0 0 1-1.593-1.185c-.46-.517-.824-1.156-1.09-1.917-.262-.761-.396-1.642-.402-2.642.006-.989.145-1.85.418-2.583.278-.733.645-1.349 1.1-1.849.46-.5.971-.892 1.534-1.176a5.42 5.42 0 0 1 1.696-.546 5.772 5.772 0 0 1 1.824 0c.573.097 1.056.253 1.448.47.398.215.645.448.742.698h.12v-.955h2.667v8.319c.005.392.093.696.264.912.17.216.4.323.69.323.392 0 .72-.173.98-.52.267-.346.466-.877.597-1.593.136-.716.205-1.628.205-2.736 0-1.068-.143-2.006-.427-2.813-.278-.812-.67-1.502-1.176-2.07a6.196 6.196 0 0 0-1.747-1.398 8.058 8.058 0 0 0-2.165-.784 11.413 11.413 0 0 0-2.386-.248c-1.415 0-2.65.216-3.707.648-1.057.426-1.938 1.026-2.642 1.799A7.604 7.604 0 0 0 8.01 12.53c-.346 1.034-.522 2.162-.528 3.384.006 1.346.193 2.54.562 3.58.375 1.033.927 1.903 1.654 2.607.727.705 1.625 1.239 2.693 1.602 1.068.364 2.296.546 3.682.546.653 0 1.292-.048 1.917-.145.625-.09 1.19-.204 1.697-.34a9.91 9.91 0 0 0 1.218-.384l.844 2.471c-.358.205-.844.395-1.457.571-.608.182-1.296.327-2.063.435a15.86 15.86 0 0 1-2.352.17Zm-.392-7.704c.693 0 1.244-.134 1.653-.4.415-.268.71-.663.887-1.185.181-.529.267-1.18.255-1.952-.005-.682-.093-1.259-.264-1.73a1.959 1.959 0 0 0-.86-1.083c-.404-.25-.967-.375-1.688-.375-.63 0-1.168.134-1.611.401a2.615 2.615 0 0 0-1.006 1.125c-.227.477-.344 1.04-.35 1.688a5.34 5.34 0 0 0 .29 1.713c.188.534.498.968.93 1.303.431.33 1.02.495 1.764.495Z"/>
</svg>
