<svg xmlns="http://www.w3.org/2000/svg" fill="currentColor" viewBox="0 0 32 32">
  <g clip-path="url(#a)">
    <path d="M16 5.162c0-.642.521-1.168 1.16-1.106A12 12 0 0 1 27.944 14.84c.062.639-.464 1.16-1.106 1.16-.641 0-1.154-.522-1.23-1.159a9.678 9.678 0 0 0-8.45-8.448C16.523 6.316 16 5.803 16 5.162Z"/>
    <path d="M16 9.37c0-.757.617-1.382 1.363-1.253a8 8 0 0 1 6.52 6.52c.129.745-.496 1.363-1.252 1.363-.757 0-1.352-.623-1.547-1.354a5.248 5.248 0 0 0-1.364-2.366 5.26 5.26 0 0 0-2.366-1.364c-.73-.194-1.354-.79-1.354-1.547Zm1.95 14.58A6.998 6.998 0 0 1 6 19a7 7 0 0 1 2.05-4.95L13 19l4.95 4.95Z"/>
    <path d="M6.399 27.55a3.377 3.377 0 0 1 6.753 0H6.399Zm8.241-11.559a1 1 0 1 1 1.415 1.414l-3.934 3.934a1 1 0 0 1-1.414-1.414l3.934-3.934ZM19 14.5a1.5 1.5 0 1 1-3 0 1.5 1.5 0 0 1 3 0Z"/>
  </g>
  <defs>
    <clipPath id="a">
      <path d="M4 4h24v24H4z"/>
    </clipPath>
  </defs>
</svg>
