<svg xmlns="http://www.w3.org/2000/svg" fill="currentColor" viewBox="0 0 32 32">
  <path fill-rule="evenodd" d="M10.313 25.5a2 2 0 0 1-2-2v-3.25h-.626a3.5 3.5 0 0 1-3.5-3.5V10a3.5 3.5 0 0 1 3.5-3.5h4.688a3.5 3.5 0 0 1 3.5 3.5v8.25c0 .655-.188 1.393-.399 2.015-.226.67-.548 1.403-.943 2.095-.388.678-.893 1.398-1.516 1.974-.602.555-1.524 1.166-2.704 1.166Zm0-7.25v5.25c.723 0 1.418-.586 2-1.381a9.323 9.323 0 0 0 1.032-1.869c.333-.799.53-1.552.53-2V10a1.5 1.5 0 0 0-1.5-1.5H7.687a1.5 1.5 0 0 0-1.5 1.5v6.75a1.5 1.5 0 0 0 1.5 1.5h2.625Zm-.187 3.281.006-.003a.04.04 0 0 1-.006.003ZM22 25.5a2 2 0 0 1-2-2v-3.25h-.625a3.5 3.5 0 0 1-3.5-3.5V10a3.5 3.5 0 0 1 3.5-3.5h4.688a3.5 3.5 0 0 1 3.5 3.5v8.25c0 .655-.188 1.393-.4 2.015-.226.67-.547 1.403-.942 2.095-.388.678-.893 1.398-1.516 1.974-.602.555-1.524 1.166-2.705 1.166Zm0-7.25v5.25c.723 0 1.419-.586 2-1.381a9.323 9.323 0 0 0 1.032-1.869c.334-.799.53-1.552.53-2V10a1.5 1.5 0 0 0-1.5-1.5h-4.687a1.5 1.5 0 0 0-1.5 1.5v6.75a1.5 1.5 0 0 0 1.5 1.5H22Zm-.187 3.281s.003 0 .007-.003a.04.04 0 0 1-.007.003Z" clip-rule="evenodd"/>
</svg>
