<svg viewBox="0 0 128 128" fill="currentColor" xmlns="http://www.w3.org/2000/svg">
<path fill-rule="evenodd" clip-rule="evenodd" d="M35.5 94V79H31C24.373 79 19 73.627 19 67V40C19 33.373 24.373 28 31 28H49.75C56.377 28 61.75 33.373 61.75 40V73C61.75 75.07 61.162 77.76 60.261 80.421C59.396 82.977 58.159 85.8 56.647 88.446C55.093 91.166 53.166 93.828 50.962 95.865C48.479 98.157 45.232 100 41.5 100C38.186 100 35.5 97.314 35.5 94ZM41.5 94C43.654 94 45.458 92.78 46.891 91.457C48.664 89.819 50.187 87.657 51.437 85.469C52.751 83.17 53.826 80.717 54.578 78.496C55.247 76.52 55.75 74.537 55.75 73V40C55.75 36.686 53.064 34 49.75 34H31C27.686 34 25 36.686 25 40V67C25 70.314 27.686 73 31 73H38.5C40.157 73 41.5 74.343 41.5 76V94ZM82.25 94V79H77.75C71.123 79 65.75 73.627 65.75 67V40C65.75 33.373 71.123 28 77.75 28H96.5C103.127 28 108.5 33.373 108.5 40V73C108.5 75.07 107.912 77.76 107.011 80.421C106.146 82.977 104.909 85.8 103.397 88.446C101.843 91.166 99.916 93.828 97.712 95.865C95.229 98.157 91.982 100 88.25 100C84.936 100 82.25 97.314 82.25 94ZM88.25 94C90.404 94 92.208 92.78 93.641 91.457C95.414 89.819 96.937 87.657 98.187 85.469C99.501 83.17 100.576 80.717 101.328 78.496C101.997 76.52 102.5 74.537 102.5 73V40C102.5 36.686 99.814 34 96.5 34H77.75C74.436 34 71.75 36.686 71.75 40V67C71.75 70.314 74.436 73 77.75 73H85.25C86.907 73 88.25 74.343 88.25 76V94Z"/>
</svg>
