<svg viewBox="0 0 128 128" fill="currentColor" xmlns="http://www.w3.org/2000/svg">
<path fill-rule="evenodd" clip-rule="evenodd" d="M41.25 102C36.8317 102 33.25 98.4183 33.25 94V81H30.75C23.018 81 16.75 74.732 16.75 67V40C16.75 32.268 23.018 26 30.75 26H49.5C57.232 26 63.5 32.268 63.5 40V73C63.5 75.6212 62.7488 78.5715 61.9055 81.062C60.9986 83.7402 59.7131 86.6735 58.1334 89.4379C56.5813 92.154 54.5609 95.032 52.0686 97.3339C49.6611 99.5574 45.9736 102 41.25 102ZM41.25 73V94C44.1431 94 46.9245 91.6565 49.25 88.4761C50.8958 86.2252 52.3132 83.5551 53.3802 81C54.7139 77.806 55.5 74.7916 55.5 73V40C55.5 36.6863 52.8137 34 49.5 34H30.75C27.4363 34 24.75 36.6863 24.75 40V67C24.75 70.3137 27.4363 73 30.75 73H41.25ZM40.5032 86.1254C40.5032 86.1249 40.512 86.1202 40.5295 86.1129C40.5119 86.1223 40.5032 86.126 40.5032 86.1254Z"/>
<path fill-rule="evenodd" clip-rule="evenodd" d="M88 102C83.5817 102 80 98.4183 80 94V81H77.5C69.768 81 63.5 74.732 63.5 67V40C63.5 32.268 69.768 26 77.5 26H96.25C103.982 26 110.25 32.268 110.25 40V73C110.25 75.6212 109.499 78.5715 108.655 81.062C107.749 83.7402 106.463 86.6735 104.883 89.4379C103.331 92.154 101.311 95.032 98.8186 97.3339C96.4111 99.5574 92.7236 102 88 102ZM88 73V94C90.8931 94 93.6745 91.6565 96 88.4761C97.6458 86.2252 99.0632 83.5551 100.13 81C101.464 77.806 102.25 74.7916 102.25 73V40C102.25 36.6863 99.5637 34 96.25 34H77.5C74.1863 34 71.5 36.6863 71.5 40V67C71.5 70.3137 74.1863 73 77.5 73H88ZM87.2532 86.1254C87.2532 86.1249 87.262 86.1202 87.2795 86.1129C87.2619 86.1223 87.2532 86.126 87.2532 86.1254Z"/>
</svg>
