<svg viewBox="0 0 128 128" fill="none" xmlns="http://www.w3.org/2000/svg">
<g clip-path="url(#clip0_114_221)">
<circle cx="52" cy="76" r="32" stroke="currentColor" stroke-width="8"/>
<circle cx="39.4444" cy="74.1898" r="6.22222" fill="currentColor"/>
<circle cx="64.3333" cy="74.1898" r="6.22222" fill="currentColor"/>
<path d="M42.2222 88.2176C43.9722 89.5787 46.6666 91.7731 51.9999 91.7731C57.3333 91.7731 60.0278 89.5787 61.7777 88.2176" stroke="currentColor" stroke-width="7.11111" stroke-linecap="round" stroke-linejoin="round"/>
<path d="M90 21C90 19.8954 90.8954 19 92 19H96C97.1046 19 98 19.8954 98 21V49C98 50.1046 97.1046 51 96 51H92C90.8954 51 90 50.1046 90 49V21Z" fill="currentColor"/>
<path d="M80 39C78.8954 39 78 38.1046 78 37V33C78 31.8954 78.8954 31 80 31H108C109.105 31 110 31.8954 110 33V37C110 38.1046 109.105 39 108 39H80Z" fill="currentColor"/>
</g>
<defs>
<clipPath id="clip0_114_221">
<rect width="96" height="96" fill="currentColor" transform="translate(16 16)"/>
</clipPath>
</defs>
</svg>