<svg xmlns="http://www.w3.org/2000/svg" fill="currentColor" viewBox="0 0 32 32">
  <g clip-path="url(#a)">
    <path fill-rule="evenodd" d="M13 26a7 7 0 1 0 0-14 7 7 0 0 0 0 14Zm0 2a9 9 0 1 0 0-18 9 9 0 0 0 0 18Z" clip-rule="evenodd"/>
    <path d="M11.417 18.547a1.556 1.556 0 1 1-3.112 0 1.556 1.556 0 0 1 3.112 0Zm6.222 0a1.556 1.556 0 1 1-3.111 0 1.556 1.556 0 0 1 3.11 0Z"/>
    <path fill-rule="evenodd" d="M9.854 21.509a.889.889 0 0 1 1.247-.156l.034.026c.39.304.866.675 1.865.675s1.475-.371 1.865-.675l.034-.026a.889.889 0 1 1 1.064 1.424c-.484.377-1.355 1.055-2.963 1.055s-2.479-.678-2.963-1.055l-.027-.021a.889.889 0 0 1-.156-1.247Z" clip-rule="evenodd"/>
    <path d="M22.5 5.25a.5.5 0 0 1 .5-.5h1a.5.5 0 0 1 .5.5v7a.5.5 0 0 1-.5.5h-1a.5.5 0 0 1-.5-.5v-7Z"/>
    <path d="M20 9.75a.5.5 0 0 1-.5-.5v-1a.5.5 0 0 1 .5-.5h7a.5.5 0 0 1 .5.5v1a.5.5 0 0 1-.5.5h-7Z"/>
  </g>
  <defs>
    <clipPath id="a">
      <path d="M4 4h24v24H4z"/>
    </clipPath>
  </defs>
</svg>
