<svg xmlns="http://www.w3.org/2000/svg" fill="currentColor" viewBox="0 0 32 32">
  <g clip-path="url(#a)">
    <g clip-path="url(#b)">
      <path d="M9.578 10.611c-.684-.574-.78-1.606-.104-2.188a10 10 0 1 1-3.385 8.906c-.119-.885.639-1.592 1.531-1.567.893.025 1.577.78 1.763 1.652a6.766 6.766 0 1 0 2.61-6.867c-.719.53-1.73.638-2.415.064Z"/>
      <path d="M8.285 14.095a1 1 0 0 1-1.326-1.113l.902-5.117a1 1 0 0 1 1.628-.592l3.98 3.34a1 1 0 0 1-.3 1.705l-4.884 1.777Z"/>
    </g>
  </g>
  <defs>
    <clipPath id="a">
      <path d="M0 0h32v32H0z"/>
    </clipPath>
    <clipPath id="b">
      <path d="M17.48 32.906-.907 17.479 14.521-.906 32.906 14.52z"/>
    </clipPath>
  </defs>
</svg>
