<svg xmlns="http://www.w3.org/2000/svg" fill="currentColor" viewBox="0 0 32 32">
  <g clip-path="url(#a)">
    <path fill-rule="evenodd" d="m4.014 16.209 3.629-6.285 3.628 6.285h-3v4.19a2.723 2.723 0 0 0 2.723 2.723h7.541a.628.628 0 0 1 0 1.256h-7.54a3.98 3.98 0 0 1-3.98-3.98v-4.19h-3Z" clip-rule="evenodd"/>
    <path fill-rule="evenodd" d="M8.816 20.347c0 1.203.975 2.178 2.178 2.178h7.54a1.173 1.173 0 0 1 0 2.347h-7.54a4.525 4.525 0 0 1-4.525-4.525v-4.248h2.347v4.248Zm18.92-4.199-3.628 6.284-3.629-6.284h3v-4.296a2.723 2.723 0 0 0-2.723-2.724h-7.54a.628.628 0 0 1 0-1.256h7.54a3.98 3.98 0 0 1 3.98 3.98v4.296h3Z" clip-rule="evenodd"/>
    <path fill-rule="evenodd" d="M22.934 11.852a2.179 2.179 0 0 0-2.178-2.179h-7.541a1.173 1.173 0 1 1 0-2.346h7.54a4.525 4.525 0 0 1 4.526 4.525V17h-2.347v-5.148Z" clip-rule="evenodd"/>
  </g>
  <defs>
    <clipPath id="a">
      <path d="M4 4h24v24H4z"/>
    </clipPath>
  </defs>
</svg>
