<svg xmlns="http://www.w3.org/2000/svg" fill="currentColor" viewBox="0 0 128 128">
  <g clip-path="url(#a)">
    <path d="M30.57 39.698 16.057 64.835h29.026L30.57 39.698Zm43.572 57.816a2.514 2.514 0 1 0 0-5.028v5.028Zm-41.058-15.92V62.32h-5.028v19.272h5.028Zm10.893 15.92H74.14v-5.028H43.977v5.028Zm-15.92-15.92c0 8.792 7.127 15.92 15.92 15.92v-5.028c-6.016 0-10.893-4.877-10.893-10.893h-5.028Z"/>
    <path d="M74.139 99.486a4.692 4.692 0 1 0 0-9.385v9.385Zm-30.162 0h30.162v-9.385H43.977v9.385Zm-8.715-18.099v-16.99h-9.384v16.99h9.384Zm8.715 8.714a8.714 8.714 0 0 1-8.715-8.714h-9.384c0 9.996 8.103 18.099 18.099 18.099v-9.385Zm52.453-.373 14.513-25.138H81.917L96.43 89.728ZM52.86 31.486a2.514 2.514 0 1 0 0 5.028v-5.028Zm41.055 15.92v19.698h5.028V47.407h-5.028Zm-10.893-15.92H52.861v5.028h30.162v-5.028Zm15.92 15.92c0-8.792-7.127-15.92-15.92-15.92v5.028c6.016 0 10.893 4.877 10.893 10.893h5.028Z"/>
    <path d="M52.858 29.308a4.692 4.692 0 1 0 0 9.384v-9.384Zm30.165 0H52.86v9.384h30.164v-9.384Zm8.715 18.099V68h9.384V47.407h-9.384Zm-8.715-8.715a8.714 8.714 0 0 1 8.715 8.715h9.384c0-9.996-8.103-18.1-18.099-18.1v9.385Z"/>
  </g>
  <defs>
    <clipPath id="a">
      <path d="M16 16h96v96H16z"/>
    </clipPath>
  </defs>
</svg>
