<svg xmlns="http://www.w3.org/2000/svg" fill="currentColor" viewBox="0 0 128 128">
  <g clip-path="url(#a)">
    <path d="M107.742 41.773a26.944 26.944 0 0 1-2.808 16.212c-2.601 4.963-6.685 8.954-11.66 11.394a25.559 25.559 0 0 1-16.01 2.178c-5.428-1.025-10.396-3.785-14.183-7.88a26.72 26.72 0 0 1-6.88-14.894 26.931 26.931 0 0 1 3.076-16.162c2.683-4.917 6.832-8.837 11.846-11.19a25.553 25.553 0 0 1 16.045-1.902l-3.334 16.756a9.066 9.066 0 0 0-5.693.675 9.296 9.296 0 0 0-4.203 3.97 9.555 9.555 0 0 0-1.092 5.735 9.479 9.479 0 0 0 2.441 5.285 9.176 9.176 0 0 0 5.033 2.795 9.068 9.068 0 0 0 5.68-.773 9.304 9.304 0 0 0 4.137-4.042 9.558 9.558 0 0 0 .996-5.752l16.609-2.405Z"/>
  </g>
  <rect width="25" height="75.773" x="67.609" y="43.703" rx="12.5" transform="rotate(46.112 67.61 43.703)"/>
  <defs>
    <clipPath id="a">
      <path d="M16 16h96v96H16z"/>
    </clipPath>
  </defs>
</svg>
