<svg xmlns="http://www.w3.org/2000/svg" fill="currentColor" viewBox="0 0 32 32">
  <g clip-path="url(#a)">
    <path d="M26.935 10.443a6.736 6.736 0 0 1-.702 4.053 6.555 6.555 0 0 1-2.914 2.849 6.39 6.39 0 0 1-4.003.544 6.467 6.467 0 0 1-3.546-1.97 6.68 6.68 0 0 1-1.72-3.723 6.733 6.733 0 0 1 .77-4.04 6.55 6.55 0 0 1 2.96-2.798 6.388 6.388 0 0 1 4.012-.476l-.834 4.19c-.48-.1-.978-.04-1.423.168a2.324 2.324 0 0 0-1.05.993 2.389 2.389 0 0 0 .337 2.754 2.268 2.268 0 0 0 2.678.506c.441-.216.803-.57 1.034-1.01.231-.44.318-.944.25-1.439l4.151-.6Z"/>
  </g>
  <path d="M14.65 13.092a3.125 3.125 0 1 1 4.333 4.505l-9.148 8.8a3.125 3.125 0 0 1-4.333-4.505l9.148-8.8Z"/>
  <defs>
    <clipPath id="a">
      <path d="M4 4h24v24H4z"/>
    </clipPath>
  </defs>
</svg>
