<?xml version="1.0" encoding="UTF-8" standalone="no"?>
<!DOCTYPE svg PUBLIC "-//W3C//DTD SVG 1.1//EN" "http://www.w3.org/Graphics/SVG/1.1/DTD/svg11.dtd">
<svg width="100%" height="100%" viewBox="0 0 226 89" version="1.1" xmlns="http://www.w3.org/2000/svg" xmlns:xlink="http://www.w3.org/1999/xlink" xml:space="preserve" xmlns:serif="http://www.serif.com/" style="fill-rule:evenodd;clip-rule:evenodd;stroke-linejoin:round;stroke-miterlimit:2;">
    <g transform="matrix(0.0592476,0,0,0.0592476,19.3835,-44.4646)">
        <g>
            <clipPath id="_clip1">
                <path d="M3471.16,750.487L3471.16,2249.51L-327.161,2249.51L-327.161,750.487L3471.16,750.487ZM2317.49,1260.74L1795.39,1260.74L1795.39,1763.02L2317.49,1763.02L2317.49,1260.74Z"/>
            </clipPath>
            <g clip-path="url(#_clip1)">
                <g transform="matrix(3.12421,0,0,3.12421,13.4825,-77.5092)">
                    <g id="spinner">
                        <path d="M380,380C476.218,283.782 659.849,234.849 710,285C760.151,335.151 756.844,478.156 634,601C511.156,723.844 358.099,784.099 291,717C249.901,675.901 257.955,619 257.955,619C260.181,637.245 251.818,720.443 352.404,720.443C452.989,720.443 530.426,645.937 610.046,566.318C689.665,486.699 778.651,275.064 635.273,275.064C491.896,275.064 380,380 380,380Z" style="fill:#322e1f;"/>
                    </g>
                </g>
                <g transform="matrix(44.394,0.545455,-44.394,0.545455,899.136,728.049)">
                    <g id="star-shine" serif:id="star shine">
                        <rect x="383" y="377" width="11" height="11" style="fill:#322e1f;"/>
                    </g>
                </g>
                <g id="star" transform="matrix(1.45161,0,0,1.45161,531.871,522.581)">
                    <path d="M436.5,384L449.059,417.941L483,430.5L449.059,443.059L436.5,477L423.941,443.059L390,430.5L423.941,417.941L436.5,384Z" style="fill:#322e1f;"/>
                </g>
            </g>
        </g>
    </g>
    <g transform="matrix(2.67689,0,0,2.67689,-0.655394,55.5404)">
        <text x="0px" y="0px" style="font-family:'Inter-BoldItalic', 'Inter';font-weight:700;font-style:italic;font-size:13.636px;fill:#322e1f;">space social</text>
    </g>
</svg>
